<svg id="Layer_1" enable-background="new 0 0 512 512" height="512" viewBox="0 0 512 512" width="512" xmlns="http://www.w3.org/2000/svg"><g><path d="m396.68 344.64c-9.71 49.92-68.99 88.32-140.68 88.32s-130.97-38.4-140.68-88.31z" fill="#eef0f5"/><path d="m396.68 344.64c-9.71 49.92-68.99 88.32-140.68 88.32s-130.97-38.4-140.68-88.31c9.71 36.4 68.99 64.4 140.68 64.4s130.97-28 140.68-64.41z" fill="#dae1ea"/><path d="m504.5 280.9c0 33.29-111.26 81.06-248.5 81.06-82.98 0-156.47-17.47-201.6-38.63-29.51-13.85-46.9-29.27-46.9-42.43 0-18.29 44.9-46.06 112.85-63.88h271.3c67.95 17.82 112.85 45.59 112.85 63.88z" fill="#eef0f5"/><path d="m504.5 280.9c0 33.29-111.26 81.06-248.5 81.06-82.98 0-156.47-17.47-201.6-38.63 43.45 12.48 99.9 21.32 161.6 21.32 137.24 0 248.5-43.71 248.5-74.18 0-15.11-36.6-37.28-93.71-53.45h20.86c67.95 17.82 112.85 45.59 112.85 63.88z" fill="#dae1ea"/><path d="m256 256.03c-3.63 0-7.16-.03-10.6-.08-130.84-1.9-125.08-39.04-125.08-39.04s.07-128.16 121.62-137.35c4.51-.34 9.2-.52 14.06-.52 135.6 0 135.68 137.87 135.68 137.87s6.07 39.12-135.68 39.12z" fill="#81ebeb"/><path d="m256 256.03c-3.63 0-7.16-.03-10.6-.08 124.84-2.9 119.25-38.93 119.25-38.93s-.07-128.91-122.68-137.42c-.01-.01-.02-.03-.03-.04 4.51-.34 9.2-.52 14.06-.52 135.6 0 135.68 137.87 135.68 137.87s6.07 39.12-135.68 39.12z" fill="#00cec8"/><g fill="#ff6b81"><circle cx="256" cy="22.501" r="15"/><circle cx="256" cy="489.499" r="15"/></g></g><g><path d="m438.97 323.177c-50.356 19.882-117.047 31.284-182.97 31.284-61.969 0-123.475-9.804-173.188-27.606-46.591-16.684-67.812-35.517-67.812-45.954 0-3.649 5.731-13.153 27.212-25.633 18.631-10.824 44.202-21.011 72.627-28.981 2.848 6.211 9.491 14.131 24.668 20.959.999.449 2.044.662 3.073.662 2.861 0 5.594-1.646 6.844-4.425 1.699-3.778.015-8.217-3.763-9.917-16.122-7.252-17.711-14.415-17.867-15.749l.021-.896c.001-.332.28-33.556 16.438-66.078 21.2-42.67 58.797-64.305 111.747-64.305 27.64 0 51.388 6.025 70.585 17.908 3.522 2.181 8.144 1.092 10.324-2.43s1.092-8.145-2.43-10.324c-19.812-12.263-43.66-18.983-70.979-20.014v-27.961c8.73-3.096 15-11.437 15-21.216 0-12.407-10.093-22.501-22.5-22.501s-22.5 10.094-22.5 22.501c0 9.779 6.27 18.12 15 21.216v27.961c-68.802 2.592-102.064 40.773-117.923 72.983-13.611 27.645-16.793 55-17.536 66.558-30.517 8.394-58.178 19.352-78.365 31.079-23.009 13.368-34.676 26.355-34.676 38.603 0 29.092 54.377 51.705 77.755 60.077 9.991 3.578 20.437 6.842 31.252 9.78 6.224 24.51 23.373 46.371 48.286 62.433-.642 13.3-4.454 23.069-11.359 29.073-10.138 8.815-24.271 7.011-24.572 6.971-4.08-.603-7.884 2.217-8.501 6.301-.618 4.096 2.201 7.917 6.296 8.536.263.04 2.38.342 5.64.342 7.245 0 20.129-1.495 30.815-10.689 8.729-7.51 14.083-18.371 15.989-32.383 6.479 3.249 13.354 6.148 20.584 8.656.814.282 1.643.416 2.458.416 3.105 0 6.01-1.944 7.085-5.044 1.357-3.914-.715-8.187-4.628-9.544-35.305-12.246-60.977-34.453-71.023-60.773 40.417 9.389 85.083 14.409 129.921 14.409 44.566 0 89.547-5.101 129.928-14.443-15.64 40.894-68.785 70.444-129.928 70.444-9.251 0-18.492-.672-27.465-1.997-4.103-.61-7.91 2.227-8.515 6.324-.605 4.098 2.226 7.91 6.324 8.515 7.266 1.073 14.69 1.75 22.156 2.021v27.958c-8.73 3.096-15 11.437-15 21.216.002 12.406 10.095 22.5 22.502 22.5s22.5-10.094 22.5-22.501c0-9.779-6.27-18.12-15-21.216v-27.959c27.59-1.015 54.194-7.613 76.855-18.987 1.905 14.013 7.26 24.876 15.99 32.387 10.688 9.195 23.571 10.689 30.815 10.689 3.258 0 5.376-.302 5.64-.342 4.096-.618 6.915-4.44 6.296-8.536s-4.438-6.914-8.536-6.296c-.14.02-14.261 1.866-24.433-6.886-6.973-6-10.821-15.805-11.464-29.18 25.193-16.272 42.181-38.262 48.331-62.431 14.672-3.969 28.59-8.522 41.485-13.613 3.853-1.521 5.743-5.877 4.222-9.73s-5.876-5.741-9.731-4.222zm-182.97-308.177c4.136 0 7.5 3.365 7.5 7.501s-3.364 7.501-7.5 7.501-7.5-3.365-7.5-7.501 3.364-7.501 7.5-7.501zm0 482c-4.136 0-7.5-3.365-7.5-7.501s3.364-7.501 7.5-7.501 7.5 3.365 7.5 7.501-3.364 7.501-7.5 7.501z"/><path d="m477.323 242.298c-20.186-11.727-47.844-22.684-78.358-31.078-.997-15.787-6.501-60.888-36.825-95.905-2.711-3.132-7.448-3.473-10.579-.76-3.131 2.711-3.472 7.448-.76 10.579 32.854 37.937 33.382 91.252 33.383 91.778l.024.917c-.078.769-.6 3.35-4.033 6.829-8.795 8.914-36.623 23.867-124.176 23.867-30.958 0-57.139-1.901-77.817-5.649-4.074-.738-7.979 1.966-8.718 6.042s1.966 7.979 6.042 8.718c21.559 3.908 48.64 5.89 80.493 5.89 73.457 0 119.427-10.183 136.636-30.267 2.103-2.455 3.55-4.815 4.539-6.968 28.42 7.969 53.985 18.156 72.613 28.977 10.108 5.872 27.213 17.878 27.213 25.633 0 9.109-15.228 20.915-29.479 28.926-3.611 2.03-4.892 6.603-2.863 10.213 1.377 2.449 3.922 3.826 6.545 3.826 1.244 0 2.506-.311 3.668-.963 24.29-13.654 37.129-28.178 37.129-42.002 0-12.248-11.667-25.235-34.677-38.603z"/><path d="m169.484 204.291c-3.899-1.401-8.193.624-9.594 4.522s.624 8.193 4.522 9.594c20.527 7.376 51.342 11.117 91.588 11.117s71.062-3.74 91.588-11.117c3.898-1.401 5.923-5.696 4.522-9.594-1.4-3.898-5.697-5.923-9.594-4.522-18.896 6.79-48.003 10.233-86.516 10.233s-67.621-3.443-86.516-10.233z"/><circle cx="256.5" cy="285.491" r="7.5"/><circle cx="221.5" cy="284.487" r="7.5"/><circle cx="190.5" cy="281.487" r="7.5"/><circle cx="159.5" cy="276.487" r="7.5"/><circle cx="130.5" cy="267.487" r="7.5"/><circle cx="104.5" cy="253.487" r="7.5"/><circle cx="290.5" cy="284.487" r="7.5"/><circle cx="321.5" cy="281.487" r="7.5"/><circle cx="352.5" cy="276.487" r="7.5"/><circle cx="381.5" cy="267.487" r="7.5"/><circle cx="407.5" cy="253.487" r="7.5"/><circle cx="256" cy="397.806" r="7.5"/><circle cx="222" cy="394.806" r="7.5"/><circle cx="190" cy="387.806" r="7.5"/><circle cx="290" cy="394.804" r="7.5"/><circle cx="321" cy="387.807" r="7.5"/></g></svg>